<?xml version="1.0" encoding="iso-8859-1"?>
<!-- Uploaded to: SVG Repo, www.svgrepo.com, Generator: SVG Repo Mixer Tools -->
<svg height="800px" width="800px" version="1.1" id="Layer_1" xmlns="http://www.w3.org/2000/svg" xmlns:xlink="http://www.w3.org/1999/xlink" 
	 viewBox="0 0 512 512" xml:space="preserve">
<path style="fill:#477777;" d="M450.399,37.604v436.792c0,20.739-16.879,37.604-37.618,37.604H99.205
	c-20.739,0-37.604-16.865-37.604-37.604V37.604C61.601,16.865,78.466,0,99.205,0h313.576C433.52,0,450.399,16.865,450.399,37.604z"
	/>
<path style="fill:#437171;" d="M450.399,37.604v436.792c0,20.739-16.879,37.604-37.618,37.604H255.74V0h157.041
	C433.52,0,450.399,16.865,450.399,37.604z"/>
<path style="fill:#F4B74A;" d="M353.357,199.574c0,11.335-9.199,20.534-20.534,20.534h-56.29v198.875
	c0,11.335-9.199,20.534-20.534,20.534h-0.26c-11.225-0.137-20.274-9.281-20.274-20.534V220.107H178.67
	c-11.348,0-20.534-9.199-20.534-20.534s9.185-20.534,20.534-20.534h56.796V96.659c0-11.252,9.049-20.397,20.274-20.534H256
	c11.335,0,20.534,9.199,20.534,20.534v82.381h56.29C344.158,179.04,353.357,188.239,353.357,199.574z"/>
<path style="fill:#EFA125;" d="M353.357,199.574c0,11.335-9.199,20.534-20.534,20.534h-56.29v198.875
	c0,11.335-9.199,20.534-20.534,20.534h-0.26V76.125H256c11.335,0,20.534,9.199,20.534,20.534v82.381h56.29
	C344.158,179.04,353.357,188.239,353.357,199.574z"/>
</svg>